<?xml version="1.0" encoding="UTF-8"?>
<svg width="58px" height="58px" viewBox="0 0 58 58" version="1.1" xmlns="http://www.w3.org/2000/svg" xmlns:xlink="http://www.w3.org/1999/xlink">
    <!-- Generator: Sketch 48.2 (47327) - http://www.bohemiancoding.com/sketch -->
    <title>ic_feat03</title>
    <desc>Created with Sketch.</desc>
    <defs></defs>
    <g id="mobzoid-web" stroke="none" stroke-width="1" fill="none" fill-rule="evenodd" transform="translate(-1037.000000, -1050.000000)">
        <g id="Group-19" transform="translate(0.000000, 840.000000)" fill="#FFFFFF" fill-rule="nonzero">
            <g id="ic_feat03" transform="translate(1034.000000, 207.000000)">
                <path d="M57.319,40.839 C57.762,38.918 58,36.96 58,35 C58,25.905 53.369,17.623 45.611,12.847 C45.138,12.557 44.524,12.704 44.235,13.174 C43.945,13.645 44.092,14.26 44.562,14.55 C51.724,18.96 56,26.604 56,35 C56,36.726 55.8,38.451 55.427,40.147 C54.966,40.051 54.489,40 54,40 C50.14,40 47,43.141 47,47 C47,50.859 50.14,54 54,54 C57.86,54 61,50.859 61,47 C61,44.341 59.509,42.024 57.319,40.839 Z M54,52 C51.243,52 49,49.757 49,47 C49,44.243 51.243,42 54,42 C56.757,42 59,44.243 59,47 C59,49.757 56.757,52 54,52 Z" id="Shape"></path>
                <path d="M41.171,57.182 C38.256,58.388 35.171,59 32,59 C25.615,59 19.473,56.425 14.983,51.908 C16.229,50.643 17,48.911 17,47 C17,43.141 13.86,40 10,40 C6.14,40 3,43.141 3,47 C3,50.859 6.14,54 10,54 C11.226,54 12.378,53.681 13.381,53.125 C18.26,58.136 24.994,61 32,61 C35.435,61 38.778,60.337 41.936,59.029 C42.446,58.818 42.689,58.233 42.478,57.722 C42.267,57.213 41.681,56.971 41.171,57.182 Z M5,47 C5,44.243 7.243,42 10,42 C12.757,42 15,44.243 15,47 C15,49.757 12.757,52 10,52 C7.243,52 5,49.757 5,47 Z" id="Shape"></path>
                <path d="M7,34.213 C7.024,34.215 7.048,34.216 7.071,34.216 C7.592,34.216 8.03,33.814 8.068,33.286 C8.78,23.197 15.654,14.766 25.288,11.972 C26.142,14.874 28.825,17 32,17 C35.86,17 39,13.859 39,10 C39,6.141 35.86,3 32,3 C28.149,3 25.015,6.127 25.001,9.975 C14.42,12.922 6.851,22.12 6.073,33.146 C6.034,33.696 6.449,34.175 7,34.213 Z M32,5 C34.757,5 37,7.243 37,10 C37,12.757 34.757,15 32,15 C29.243,15 27,12.757 27,10 C27,7.243 29.243,5 32,5 Z" id="Shape"></path>
            </g>
        </g>
    </g>
</svg>