<?xml version="1.0" encoding="UTF-8"?>
<svg width="60px" height="55px" viewBox="0 0 60 55" version="1.1" xmlns="http://www.w3.org/2000/svg" xmlns:xlink="http://www.w3.org/1999/xlink">
    <!-- Generator: Sketch 48.2 (47327) - http://www.bohemiancoding.com/sketch -->
    <title>ic_feat02</title>
    <desc>Created with Sketch.</desc>
    <defs></defs>
    <g id="mobzoid-web" stroke="none" stroke-width="1" fill="none" fill-rule="evenodd" transform="translate(-690.000000, -1052.000000)">
        <g id="Group-19" transform="translate(0.000000, 840.000000)" fill="#FFFFFF" fill-rule="nonzero">
            <g id="ic_feat02" transform="translate(688.000000, 207.000000)">
                <path d="M57.517,49.05 L47.744,44.817 C47.514,44.702 47.259,44.421 47.04,44.046 L53.565,44.041 C53.679,44.052 56.369,44.298 58.526,43.371 C59.343,43.019 59.951,42.324 60.195,41.464 C60.441,40.596 60.285,39.677 59.769,38.941 C57.904,36.287 53.551,29.352 53.415,22.318 C53.412,22.197 53.018,10.235 41.205,10.138 C39.466,10.152 37.858,10.447 36.395,10.991 C36.076,10.178 35.606,9.33 34.907,8.532 C32.854,6.188 29.521,5 25,5 C20.479,5 17.146,6.188 15.092,8.53 C12.724,11.231 12.944,14.506 13,15.055 L13,20.374 C12.36,21.103 12,22.036 12,22.999 L12,26.999 C12,28.216 12.553,29.351 13.497,30.108 C14.413,33.735 16.33,36.468 17,37.345 L17,40.654 C17,41.622 16.472,42.51 15.623,42.974 L6.702,47.84 C3.801,49.424 2,52.458 2,55.762 L2,60 L46,60 L48,60 L62,60 L62,56.303 C62,53.211 60.282,50.433 57.517,49.05 Z M46,58 L4,58 L4,55.762 C4,53.191 5.402,50.828 7.659,49.598 L16.58,44.732 C18.073,43.917 19,42.354 19,40.655 L19,36.636 L18.767,36.358 C18.743,36.329 16.292,33.364 15.357,29.293 L15.266,28.897 L14.925,28.677 C14.346,28.303 14,27.676 14,27 L14,23 C14,22.439 14.238,21.916 14.67,21.525 L15,21.228 L15,15 L14.991,14.869 C14.988,14.842 14.648,12.07 16.596,9.848 C18.253,7.958 21.081,7 25,7 C28.905,7 31.727,7.951 33.386,9.828 C34.211,10.76 34.626,11.801 34.833,12.695 C34.849,12.765 34.864,12.834 34.878,12.903 C34.892,12.974 34.907,13.045 34.918,13.113 C34.931,13.191 34.942,13.265 34.953,13.339 C34.961,13.392 34.969,13.446 34.975,13.497 C34.99,13.621 35.002,13.741 35.01,13.852 C35.011,13.861 35.011,13.869 35.011,13.878 C35.018,13.986 35.023,14.088 35.026,14.181 C35.026,14.199 35.026,14.214 35.027,14.232 C35.029,14.315 35.029,14.394 35.028,14.463 C35.028,14.473 35.028,14.483 35.028,14.493 C35.024,14.728 35.008,14.868 35.008,14.871 L35,21.228 L35.33,21.526 C35.762,21.916 36,22.439 36,23 L36,27 C36,27.873 35.428,28.637 34.578,28.899 L34.08,29.052 L33.92,29.547 C33.251,31.628 32.298,33.55 31.086,35.26 C30.789,35.681 30.5,36.054 30.249,36.339 L30,36.623 L30,40.748 C30,41.001 30.025,41.249 30.064,41.493 C30.072,41.545 30.086,41.595 30.096,41.647 C30.135,41.848 30.187,42.045 30.251,42.237 C30.266,42.282 30.282,42.325 30.299,42.37 C30.377,42.579 30.468,42.781 30.574,42.975 C30.586,42.997 30.597,43.02 30.609,43.042 C30.754,43.298 30.921,43.541 31.113,43.765 L31.341,44.046 L31.38,44.046 C31.723,44.384 32.117,44.678 32.565,44.902 L42.118,49.678 C44.513,50.874 46,53.28 46,55.957 L46,58 Z M60,58 L48,58 L48,55.957 C48,52.518 46.089,49.427 43.014,47.889 L36.156,44.459 C36.325,44.073 36.347,43.631 36.199,43.205 C35.954,42.5 35.314,42.045 34.569,42.045 L32.352,42.045 C32.306,41.964 32.276,41.875 32.239,41.789 C32.189,41.674 32.13,41.561 32.097,41.44 C32.036,41.218 32,40.986 32,40.748 L32,37.367 C32.229,37.087 32.47,36.768 32.719,36.416 C33.958,34.666 34.951,32.718 35.673,30.617 C37.084,29.97 38,28.575 38,27 L38,23 C38,22.037 37.64,21.104 37,20.375 L37,15.056 C37.026,14.806 37.082,13.987 36.916,12.917 C38.204,12.411 39.647,12.15 41.206,12.137 C51.047,12.218 51.406,21.948 51.416,22.358 C51.563,29.941 56.162,37.285 58.133,40.09 C58.302,40.33 58.353,40.632 58.272,40.917 C58.226,41.081 58.094,41.379 57.737,41.532 C56.057,42.255 53.778,42.05 53.661,42.045 L46.778,42.045 C46.135,42.045 45.549,42.372 45.21,42.919 C44.872,43.464 44.84,44.13 45.124,44.702 C45.437,45.333 45.99,46.176 46.899,46.629 L56.646,50.851 C58.715,51.896 60,53.982 60,56.303 L60,58 Z" id="Shape"></path>
            </g>
        </g>
    </g>
</svg>