<?xml version="1.0" encoding="UTF-8"?>
<svg width="60px" height="40px" viewBox="0 0 60 40" version="1.1" xmlns="http://www.w3.org/2000/svg" xmlns:xlink="http://www.w3.org/1999/xlink">
    <!-- Generator: Sketch 48.2 (47327) - http://www.bohemiancoding.com/sketch -->
    <title>ic_feat05</title>
    <desc>Created with Sketch.</desc>
    <defs></defs>
    <g id="mobzoid-web" stroke="none" stroke-width="1" fill="none" fill-rule="evenodd" transform="translate(-862.000000, -1245.000000)">
        <g id="Group-19" transform="translate(0.000000, 840.000000)" fill="#FFFFFF" fill-rule="nonzero">
            <g id="ic_feat05" transform="translate(860.000000, 393.000000)">
                <path d="M44,12 C41.794,12 40,13.794 40,16 L40,17.267 L8.955,27.051 C8.731,25.335 7.276,24 5.5,24 C3.57,24 2,25.57 2,27.5 L2,36.5 C2,38.43 3.57,40 5.5,40 C7.276,40 8.731,38.665 8.955,36.949 L11.089,37.621 C10.773,37.967 10.52,38.379 10.366,38.853 C9.788,40.636 10.768,42.558 12.553,43.136 L23.968,46.834 L23.969,46.834 C24.316,46.946 24.667,47 25.013,47 C26.448,47 27.785,46.083 28.251,44.646 C28.422,44.116 28.442,43.578 28.358,43.062 L40,46.733 L40,48 C40,50.206 41.794,52 44,52 C46.206,52 48,50.206 48,48 L48,16 C48,13.794 46.206,12 44,12 Z M26.348,44.031 C26.11,44.766 25.318,45.171 24.584,44.932 L13.169,41.234 C12.434,40.996 12.029,40.205 12.268,39.47 C12.507,38.736 13.297,38.333 14.031,38.57 L25.448,42.268 C26.182,42.506 26.585,43.297 26.348,44.031 Z M7,36.5 C7,37.327 6.327,38 5.5,38 C4.673,38 4,37.327 4,36.5 L4,27.5 C4,26.673 4.673,26 5.5,26 C6.327,26 7,26.673 7,27.5 L7,27.667 L7,36.333 L7,36.5 Z M9,34.866 L9,29.134 L40,19.363 L40,44.636 L9,34.866 Z M46,48 C46,49.103 45.103,50 44,50 C42.897,50 42,49.103 42,48 L42,47.363 L42,16.637 L42,16 C42,14.897 42.897,14 44,14 C45.103,14 46,14.897 46,16 L46,48 Z" id="Shape"></path>
                <path d="M57,31 L56,31 C55.447,31 55,31.447 55,32 C55,32.553 55.447,33 56,33 L57,33 C57.553,33 58,32.553 58,32 C58,31.447 57.553,31 57,31 Z" id="Shape"></path>
                <path d="M52,33 L53,33 C53.553,33 54,32.553 54,32 C54,31.447 53.553,31 53,31 L52,31 C51.447,31 51,31.447 51,32 C51,32.553 51.447,33 52,33 Z" id="Shape"></path>
                <path d="M61,31 L60,31 C59.447,31 59,31.447 59,32 C59,32.553 59.447,33 60,33 L61,33 C61.553,33 62,32.553 62,32 C62,31.447 61.553,31 61,31 Z" id="Shape"></path>
                <path d="M54.828,18.536 C55.084,18.536 55.34,18.438 55.535,18.243 L56.242,17.536 C56.633,17.145 56.633,16.513 56.242,16.122 C55.851,15.731 55.219,15.731 54.828,16.122 L54.121,16.829 C53.73,17.22 53.73,17.852 54.121,18.243 C54.316,18.438 54.572,18.536 54.828,18.536 Z" id="Shape"></path>
                <path d="M57.657,15.707 C57.913,15.707 58.169,15.609 58.364,15.414 L59.071,14.707 C59.462,14.316 59.462,13.684 59.071,13.293 C58.68,12.902 58.048,12.902 57.657,13.293 L56.95,14 C56.559,14.391 56.559,15.023 56.95,15.414 C57.146,15.609 57.401,15.707 57.657,15.707 Z" id="Shape"></path>
                <path d="M52,21.364 C52.256,21.364 52.512,21.266 52.707,21.071 L53.414,20.364 C53.805,19.973 53.805,19.341 53.414,18.95 C53.023,18.559 52.391,18.559 52,18.95 L51.293,19.657 C50.902,20.048 50.902,20.68 51.293,21.071 C51.488,21.267 51.744,21.364 52,21.364 Z" id="Shape"></path>
                <path d="M52.632,25.1 L51.684,25.416 C51.16,25.591 50.877,26.157 51.052,26.681 C51.192,27.1 51.581,27.365 52,27.365 C52.104,27.365 52.212,27.348 52.316,27.313 L53.264,26.997 C53.788,26.822 54.071,26.256 53.896,25.732 C53.721,25.208 53.155,24.924 52.632,25.1 Z" id="Shape"></path>
                <path d="M55.795,26.1 C55.899,26.1 56.007,26.083 56.111,26.048 L57.059,25.732 C57.583,25.557 57.866,24.991 57.691,24.467 C57.516,23.943 56.951,23.659 56.426,23.835 L55.478,24.151 C54.954,24.326 54.671,24.892 54.846,25.416 C54.986,25.835 55.376,26.1 55.795,26.1 Z" id="Shape"></path>
                <path d="M58.641,24.149 C58.781,24.569 59.171,24.834 59.59,24.834 C59.694,24.834 59.801,24.817 59.905,24.783 L60.853,24.468 C61.377,24.293 61.661,23.727 61.487,23.203 C61.312,22.679 60.745,22.397 60.222,22.569 L59.274,22.884 C58.75,23.06 58.467,23.626 58.641,24.149 Z" id="Shape"></path>
                <path d="M58.364,48.586 C57.973,48.195 57.341,48.195 56.95,48.586 C56.559,48.977 56.559,49.609 56.95,50 L57.657,50.707 C57.853,50.902 58.108,51 58.364,51 C58.62,51 58.876,50.902 59.071,50.707 C59.462,50.316 59.462,49.684 59.071,49.293 L58.364,48.586 Z" id="Shape"></path>
                <path d="M55.535,45.757 C55.144,45.366 54.512,45.366 54.121,45.757 C53.73,46.148 53.73,46.78 54.121,47.171 L54.828,47.878 C55.023,48.073 55.279,48.171 55.535,48.171 C55.791,48.171 56.047,48.073 56.242,47.878 C56.633,47.487 56.633,46.855 56.242,46.464 L55.535,45.757 Z" id="Shape"></path>
                <path d="M52.707,42.929 C52.316,42.538 51.684,42.538 51.293,42.929 C50.902,43.32 50.902,43.952 51.293,44.343 L52,45.05 C52.195,45.245 52.451,45.343 52.707,45.343 C52.963,45.343 53.219,45.245 53.414,45.05 C53.805,44.659 53.805,44.027 53.414,43.636 L52.707,42.929 Z" id="Shape"></path>
                <path d="M55.479,39.849 L56.427,40.165 C56.531,40.2 56.639,40.217 56.743,40.217 C57.162,40.217 57.552,39.952 57.691,39.533 C57.866,39.01 57.584,38.443 57.059,38.268 L56.111,37.952 C55.589,37.775 55.021,38.06 54.846,38.584 C54.671,39.108 54.954,39.674 55.479,39.849 Z" id="Shape"></path>
                <path d="M53.265,37.004 L52.317,36.688 C51.794,36.511 51.227,36.796 51.052,37.32 C50.877,37.844 51.159,38.41 51.684,38.585 L52.632,38.901 C52.736,38.936 52.844,38.953 52.948,38.953 C53.367,38.953 53.757,38.688 53.896,38.269 C54.071,37.745 53.789,37.179 53.265,37.004 Z" id="Shape"></path>
                <path d="M60.854,39.532 L59.906,39.217 C59.384,39.044 58.815,39.326 58.641,39.851 C58.467,40.374 58.75,40.941 59.275,41.116 L60.223,41.431 C60.327,41.465 60.434,41.482 60.538,41.482 C60.957,41.482 61.348,41.217 61.487,40.797 C61.661,40.273 61.378,39.707 60.854,39.532 Z" id="Shape"></path>
            </g>
        </g>
    </g>
</svg>