<?xml version="1.0" encoding="UTF-8"?>
<svg width="57px" height="57px" viewBox="0 0 57 57" version="1.1" xmlns="http://www.w3.org/2000/svg" xmlns:xlink="http://www.w3.org/1999/xlink">
    <!-- Generator: Sketch 48.2 (47327) - http://www.bohemiancoding.com/sketch -->
    <title>ic_feat06</title>
    <desc>Created with Sketch.</desc>
    <defs></defs>
    <g id="mobzoid-web" stroke="none" stroke-width="1" fill="none" fill-rule="evenodd" transform="translate(-692.000000, -1423.000000)">
        <g id="Group-19" transform="translate(0.000000, 840.000000)" fill="#FFFFFF" fill-rule="nonzero">
            <g id="ic_feat06" transform="translate(688.000000, 579.000000)">
                <path d="M60.414,15.089 L49.299,4 L35.295,4 L29.776,9.501 C16.053,8.356 4.988,16.076 4.833,16.187 C4.384,16.507 4.279,17.132 4.601,17.582 C4.796,17.854 5.103,18 5.415,18 C5.616,18 5.819,17.939 5.995,17.813 C6.134,17.714 15.707,11.037 27.876,11.394 L9.999,29.213 L10.007,29.221 L4,35.213 L29.146,60.414 L39.186,50.401 C41.248,51.481 43.647,52.012 46.02,52.011 C49.521,52.011 52.955,50.873 55.121,48.707 C62.488,41.339 59.564,33.257 58.564,31.074 L60.413,29.229 L60.413,15.089 L60.414,15.089 Z M48.473,6 L58.414,15.919 L58.414,28.399 L38.876,47.873 C34.792,44.945 33.549,39.451 35.383,32.247 C35.52,31.712 35.196,31.167 34.661,31.031 C34.124,30.888 33.582,31.218 33.445,31.753 C30.856,41.92 34.335,46.934 37.444,49.3 L35.151,51.586 L12.836,29.224 L30.516,11.59 C34.714,12.07 39.147,13.456 43.562,16.257 C43.523,16.478 43.494,16.703 43.494,16.935 C43.494,19.105 45.259,20.87 47.429,20.87 C49.599,20.87 51.365,19.105 51.365,16.935 C51.365,14.765 49.599,13 47.429,13 C46.213,13 45.138,13.566 44.416,14.436 C40.327,11.879 36.229,10.454 32.298,9.814 L36.121,6 L48.473,6 Z M45.814,17.8 C46.256,18.132 46.883,18.043 47.213,17.6 C47.545,17.159 47.455,16.532 47.013,16.201 C46.704,15.97 46.394,15.766 46.085,15.549 C46.434,15.21 46.907,15 47.429,15 C48.496,15 49.365,15.868 49.365,16.936 C49.365,18.002 48.497,18.871 47.429,18.871 C46.626,18.871 45.937,18.379 45.644,17.681 C45.701,17.722 45.758,17.757 45.814,17.8 Z M6.828,35.217 L11.42,30.637 L33.742,53.007 L29.15,57.587 L6.828,35.217 Z M53.707,47.293 C51.131,49.867 45.337,51.041 40.677,48.914 L57.052,32.582 C58.047,35.058 59.657,41.342 53.707,47.293 Z" id="Shape"></path>
            </g>
        </g>
    </g>
</svg>