<?xml version="1.0" encoding="UTF-8"?>
<svg width="32px" height="58px" viewBox="0 0 32 58" version="1.1" xmlns="http://www.w3.org/2000/svg" xmlns:xlink="http://www.w3.org/1999/xlink">
    <!-- Generator: Sketch 48.2 (47327) - http://www.bohemiancoding.com/sketch -->
    <title>ic_feat04</title>
    <desc>Created with Sketch.</desc>
    <defs></defs>
    <g id="mobzoid-web" stroke="none" stroke-width="1" fill="none" fill-rule="evenodd" transform="translate(-532.000000, -1233.000000)">
        <g id="Group-19" transform="translate(0.000000, 840.000000)" fill="#FFFFFF" fill-rule="nonzero">
            <g id="ic_feat04" transform="translate(516.000000, 393.000000)">
                <path d="M47,28 C46.448,28 46,28.447 46,29 L46,35 C46,42.72 39.72,49 32,49 C24.28,49 18,42.72 18,35 L18,29 C18,28.447 17.552,28 17,28 C16.448,28 16,28.447 16,29 L16,35 C16,43.485 22.644,50.429 31,50.949 L31,56 L26,56 C25.448,56 25,56.447 25,57 C25,57.553 25.448,58 26,58 L38,58 C38.552,58 39,57.553 39,57 C39,56.447 38.552,56 38,56 L33,56 L33,50.949 C41.356,50.429 48,43.484 48,35 L48,29 C48,28.447 47.552,28 47,28 Z" id="Shape"></path>
                <path d="M32,46 C38.065,46 43,41.065 43,35 L43,11 C43,4.935 38.065,0 32,0 C25.935,0 21,4.935 21,11 L21,35 C21,41.065 25.935,46 32,46 Z M25.469,4.826 C25.625,4.927 25.8,5 26,5 C26.552,5 27,4.552 27,4 C27,3.852 26.964,3.714 26.906,3.588 C28.356,2.589 30.11,2 32,2 C33.89,2 35.644,2.589 37.094,3.588 C37.036,3.714 37,3.852 37,4 C37,4.552 37.448,5 38,5 C38.2,5 38.375,4.927 38.531,4.826 C39.121,5.449 39.621,6.155 40.015,6.926 C40.013,6.952 40,6.974 40,7 C40,7.319 40.159,7.591 40.392,7.774 C40.779,8.777 41,9.862 41,11 L41,12 C40.448,12 40,12.448 40,13 C40,13.552 40.448,14 41,14 L41,18 C40.448,18 40,18.448 40,19 C40,19.552 40.448,20 41,20 L41,24 C40.448,24 40,24.448 40,25 C40,25.552 40.448,26 41,26 L41,30 C40.448,30 40,30.448 40,31 C40,31.552 40.448,32 41,32 L41,35 C41,35.343 40.977,35.679 40.939,36.012 C40.417,36.045 40,36.469 40,37 C40,37.377 40.217,37.693 40.525,37.864 C39.759,40.136 38.112,42.001 35.989,43.056 C35.99,43.036 36,43.02 36,43 C36,42.448 35.552,42 35,42 C34.448,42 34,42.448 34,43 C34,43.271 34.11,43.515 34.285,43.695 C33.554,43.887 32.791,44 32,44 C31.209,44 30.446,43.887 29.715,43.695 C29.89,43.515 30,43.271 30,43 C30,42.448 29.552,42 29,42 C28.448,42 28,42.448 28,43 C28,43.02 28.01,43.036 28.011,43.056 C25.888,42 24.24,40.136 23.475,37.864 C23.783,37.693 24,37.377 24,37 C24,36.469 23.583,36.045 23.061,36.012 C23.023,35.679 23,35.343 23,35 L23,32 C23.552,32 24,31.552 24,31 C24,30.448 23.552,30 23,30 L23,26 C23.552,26 24,25.552 24,25 C24,24.448 23.552,24 23,24 L23,20 C23.552,20 24,19.552 24,19 C24,18.448 23.552,18 23,18 L23,14 C23.552,14 24,13.552 24,13 C24,12.448 23.552,12 23,12 L23,11 C23,9.862 23.221,8.777 23.608,7.774 C23.841,7.591 24,7.319 24,7 C24,6.974 23.987,6.952 23.985,6.926 C24.379,6.155 24.879,5.449 25.469,4.826 Z" id="Shape"></path>
                <circle id="Oval" cx="32" cy="4" r="1"></circle>
                <circle id="Oval" cx="29" cy="7" r="1"></circle>
                <circle id="Oval" cx="29" cy="13" r="1"></circle>
                <circle id="Oval" cx="26" cy="10" r="1"></circle>
                <circle id="Oval" cx="32" cy="10" r="1"></circle>
                <circle id="Oval" cx="26" cy="16" r="1"></circle>
                <circle id="Oval" cx="32" cy="16" r="1"></circle>
                <circle id="Oval" cx="35" cy="7" r="1"></circle>
                <circle id="Oval" cx="35" cy="13" r="1"></circle>
                <circle id="Oval" cx="38" cy="10" r="1"></circle>
                <circle id="Oval" cx="38" cy="16" r="1"></circle>
                <circle id="Oval" cx="29" cy="19" r="1"></circle>
                <circle id="Oval" cx="29" cy="25" r="1"></circle>
                <circle id="Oval" cx="26" cy="22" r="1"></circle>
                <circle id="Oval" cx="32" cy="22" r="1"></circle>
                <circle id="Oval" cx="26" cy="28" r="1"></circle>
                <circle id="Oval" cx="32" cy="28" r="1"></circle>
                <circle id="Oval" cx="35" cy="19" r="1"></circle>
                <circle id="Oval" cx="35" cy="25" r="1"></circle>
                <circle id="Oval" cx="38" cy="22" r="1"></circle>
                <circle id="Oval" cx="38" cy="28" r="1"></circle>
                <circle id="Oval" cx="29" cy="31" r="1"></circle>
                <circle id="Oval" cx="29" cy="37" r="1"></circle>
                <circle id="Oval" cx="26" cy="34" r="1"></circle>
                <circle id="Oval" cx="32" cy="34" r="1"></circle>
                <circle id="Oval" cx="26" cy="40" r="1"></circle>
                <circle id="Oval" cx="32" cy="40" r="1"></circle>
                <circle id="Oval" cx="35" cy="31" r="1"></circle>
                <circle id="Oval" cx="35" cy="37" r="1"></circle>
                <circle id="Oval" cx="38" cy="34" r="1"></circle>
                <circle id="Oval" cx="38" cy="40" r="1"></circle>
            </g>
        </g>
    </g>
</svg>