<?xml version="1.0" encoding="UTF-8"?>
<svg width="61px" height="40px" viewBox="0 0 61 40" version="1.1" xmlns="http://www.w3.org/2000/svg" xmlns:xlink="http://www.w3.org/1999/xlink">
    <!-- Generator: Sketch 48.2 (47327) - http://www.bohemiancoding.com/sketch -->
    <title>ic_feat01</title>
    <desc>Created with Sketch.</desc>
    <defs></defs>
    <g id="mobzoid-web" stroke="none" stroke-width="1" fill="none" fill-rule="evenodd" transform="translate(-346.000000, -1059.000000)">
        <g id="Group-19" transform="translate(0.000000, 840.000000)" fill="#FFFFFF" fill-rule="nonzero">
            <g id="ic_feat01" transform="translate(344.000000, 207.000000)">
                <path d="M62.045885,13.1613347 C62.049885,13.1373347 62.056885,13.1133347 62.058885,13.0893347 C62.065885,13.0153347 62.057885,12.9403347 62.048885,12.8653347 C62.046885,12.8463347 62.049885,12.8283347 62.046885,12.8093347 C62.028885,12.7103347 61.995885,12.6133347 61.946885,12.5203347 C61.938885,12.5043347 61.927885,12.4893347 61.918885,12.4733347 C61.916885,12.4713347 61.916885,12.4683347 61.915885,12.4653347 C61.914885,12.4633347 61.911885,12.4623347 61.910885,12.4593347 C61.903885,12.4483347 61.897885,12.4363347 61.890885,12.4263347 C61.828885,12.3353347 61.753885,12.2603347 61.669885,12.1963347 C61.650885,12.1823347 61.628885,12.1743347 61.608885,12.1613347 C61.534885,12.1123347 61.456885,12.0723347 61.372885,12.0453347 C61.335885,12.0333347 61.298885,12.0273347 61.260885,12.0203347 C61.187885,12.0053347 61.114885,11.9983347 61.038885,12.0003347 C60.998885,12.0013347 60.960885,12.0033347 60.920885,12.0093347 C60.894885,12.0133347 60.869885,12.0093347 60.843885,12.0153347 L2.79788495,24.0113347 C2.38488495,24.0973347 2.06888495,24.4323347 2.00988495,24.8503347 C1.95088495,25.2683347 2.15988495,25.6783347 2.53288495,25.8753347 L19.164885,34.6483347 L22.081885,50.8353347 C22.079885,50.8473347 22.082885,50.8603347 22.081885,50.8723347 C22.071885,50.9523347 22.070885,51.0303347 22.080885,51.1093347 C22.085885,51.1493347 22.090885,51.1873347 22.100885,51.2263347 C22.123885,51.3213347 22.160885,51.4103347 22.210885,51.4943347 C22.220885,51.5103347 22.220885,51.5293347 22.231885,51.5453347 C22.234885,51.5503347 22.239885,51.5543347 22.243885,51.5583347 C22.256885,51.5773347 22.274885,51.5923347 22.289885,51.6113347 C22.336885,51.6693347 22.385885,51.7223347 22.441885,51.7673347 C22.450885,51.7743347 22.456885,51.7853347 22.466885,51.7923347 C22.481885,51.8033347 22.498885,51.8063347 22.513885,51.8163347 C22.574885,51.8563347 22.637885,51.8893347 22.704885,51.9153347 C22.731885,51.9253347 22.756885,51.9373347 22.784885,51.9453347 C22.874885,51.9713347 22.967885,51.9893347 23.061885,51.9893347 C23.062885,51.9893347 23.063885,51.9893347 23.064885,51.9893347 C23.064885,51.9893347 23.064885,51.9893347 23.064885,51.9893347 C23.068885,51.9893347 23.072885,51.9873347 23.076885,51.9873347 C23.093885,51.9883347 23.110885,51.9893347 23.127885,51.9893347 C23.404885,51.9893347 23.654885,51.8653347 23.839885,51.6743347 L34.918885,44.2883347 L46.518885,51.8283347 C46.682885,51.9343347 46.872885,51.9893347 47.063885,51.9893347 C47.168885,51.9893347 47.275885,51.9723347 47.378885,51.9383347 C47.666885,51.8423347 47.896885,51.6203347 48.001885,51.3343347 L61.997885,13.3453347 C62.010885,13.3113347 62.021885,13.2763347 62.030885,13.2403347 C62.034885,13.2253347 62.035885,13.2103347 62.038885,13.1963347 C62.041885,13.1853347 62.043885,13.1733347 62.045885,13.1613347 Z M50.463885,19.5443347 L26.470885,37.1853347 C26.431885,37.2143347 26.400885,37.2503347 26.366885,37.2843347 C26.353885,37.2963347 26.340885,37.3063347 26.329885,37.3193347 C26.308885,37.3423347 26.289885,37.3653347 26.270885,37.3903347 C26.252885,37.4143347 26.238885,37.4393347 26.222885,37.4643347 C26.185885,37.5243347 26.154885,37.5863347 26.130885,37.6523347 C26.125885,37.6653347 26.117885,37.6753347 26.113885,37.6883347 C26.112885,37.6923347 26.108885,37.6943347 26.107885,37.6983347 L23.357885,46.6353347 L21.178885,34.5443347 L50.463885,19.5443347 Z M24.907885,48.5593347 L27.633885,39.5553347 L31.877885,42.3143347 L33.091885,43.1033347 L28.967885,45.8523347 L24.907885,48.5593347 Z M54.043885,15.4633347 L20.070885,32.8643347 L5.93088495,25.4063347 L54.043885,15.4633347 Z M46.558885,49.4693347 L31.153885,39.4573347 L28.820885,37.9403347 L58.974885,15.7683347 L46.558885,49.4693347 Z" id="Shape"></path>
            </g>
        </g>
    </g>
</svg>