<?xml version="1.0" encoding="UTF-8"?>
<svg width="24px" height="24px" viewBox="0 0 24 24" version="1.1" xmlns="http://www.w3.org/2000/svg" xmlns:xlink="http://www.w3.org/1999/xlink">
    <!-- Generator: Sketch 48.2 (47327) - http://www.bohemiancoding.com/sketch -->
    <title>sc_bt</title>
    <desc>Created with Sketch.</desc>
    <defs></defs>
    <g id="mobzoid-web" stroke="none" stroke-width="1" fill="none" fill-rule="evenodd" transform="translate(-838.000000, -8019.000000)">
        <g id="Group-15" transform="translate(201.000000, 7932.000000)" fill="#7F7F7F">
            <path d="M649,111 C642.372583,111 637,105.627417 637,99 C637,92.372583 642.372583,87 649,87 C655.627417,87 661,92.372583 661,99 C661,105.627417 655.627417,111 649,111 Z M655.012006,95.5384615 C654.968759,95.0624976 654.837215,94.6496412 654.617373,94.2998798 C654.39753,93.9501184 654.100206,93.6688713 653.725392,93.4561298 C653.350578,93.2433884 652.943334,93.0811304 652.503649,92.969351 C652.063963,92.8575716 651.559413,92.7764426 650.989984,92.7259615 L650.989984,90 L649.324954,90 L649.324954,92.6502404 C649.036635,92.6502404 648.596956,92.6574519 648.005904,92.671875 L648.005904,90 L646.340873,90 L646.340873,92.7259615 C646.10301,92.7331731 645.75343,92.7367788 645.29212,92.7367788 L643,92.7259615 L643,94.5 L644.200119,94.5 C644.747924,94.5 645.068674,94.7451899 645.162377,95.2355769 L645.162377,98.3401442 C645.234457,98.3401442 645.29212,98.34375 645.335368,98.3509615 L645.162377,98.3509615 L645.162377,102.699519 C645.104714,103.06731 644.895686,103.251202 644.535288,103.251202 L643.335168,103.251202 L643,105.230769 L645.162377,105.230769 C645.299329,105.230769 645.497545,105.232572 645.757031,105.236178 C646.016518,105.239784 646.21113,105.241587 646.340873,105.241587 L646.340873,108 L648.005904,108 L648.005904,105.274038 C648.308638,105.28125 648.748317,105.284856 649.324954,105.284856 L649.324954,108 L650.989984,108 L650.989984,105.241587 C651.581037,105.21274 652.105408,105.158654 652.563114,105.079327 C653.020819,105 653.458697,104.875602 653.876758,104.70613 C654.29482,104.536658 654.644401,104.325722 654.925511,104.073317 C655.206622,103.820912 655.439075,103.500002 655.622878,103.110577 C655.806681,102.721152 655.923809,102.270435 655.974264,101.758413 C656.067968,100.756005 655.905791,99.9843777 655.487729,99.4435096 C655.069668,98.9026415 654.438981,98.531251 653.595649,98.3293269 C654.669635,97.7812473 655.14175,96.8509681 655.012006,95.5384615 Z M652.687451,101.433894 C652.687451,101.635818 652.653213,101.819711 652.584738,101.985577 C652.516262,102.151443 652.427966,102.295672 652.319847,102.418269 C652.211727,102.540866 652.069372,102.649038 651.892777,102.742788 C651.716182,102.836539 651.544995,102.912259 651.379212,102.969952 C651.213429,103.027645 651.013411,103.078125 650.779153,103.121394 C650.544894,103.164664 650.33947,103.195312 650.162875,103.213341 C649.98628,103.23137 649.77545,103.245793 649.53038,103.256611 C649.285309,103.267428 649.094301,103.272837 648.95735,103.272837 C648.820398,103.272837 648.64741,103.271034 648.438379,103.267428 C648.229348,103.263822 648.096003,103.262019 648.038339,103.262019 L648.038339,99.6057692 C648.096003,99.6057692 648.267189,99.6021635 648.551904,99.5949519 C648.836618,99.5877403 649.069072,99.5841346 649.249271,99.5841346 C649.42947,99.5841346 649.678141,99.5949518 649.995291,99.6165865 C650.312441,99.6382213 650.579132,99.6706729 650.79537,99.7139423 C651.011609,99.7572118 651.247666,99.8239178 651.503549,99.9140625 C651.759432,100.004207 651.966657,100.114182 652.125233,100.24399 C652.283808,100.373799 652.417153,100.539662 652.525272,100.741587 C652.633392,100.943511 652.687451,101.174278 652.687451,101.433894 Z M651.919807,96.2848558 C651.919807,96.4867799 651.887371,96.6706722 651.8225,96.8365385 C651.757628,97.0024047 651.660322,97.1412254 651.530579,97.2530048 C651.400835,97.3647842 651.26749,97.462139 651.130539,97.5450721 C650.993588,97.6280052 650.818797,97.6947113 650.606162,97.7451923 C650.393528,97.7956733 650.207925,97.8353364 650.04935,97.8641827 C649.890775,97.893029 649.692559,97.9128605 649.454696,97.9236779 C649.216834,97.9344952 649.036637,97.9417067 648.914102,97.9453125 C648.791567,97.9489183 648.623984,97.9489183 648.411349,97.9453125 C648.198715,97.9417067 648.074379,97.9399038 648.038339,97.9399038 L648.038339,94.6189904 C648.088795,94.6189904 648.23115,94.6171875 648.465409,94.6135817 C648.699668,94.6099759 648.89428,94.6063702 649.049251,94.6027644 C649.204222,94.5991586 649.41325,94.608173 649.67634,94.6298077 C649.939431,94.6514424 650.161072,94.6802883 650.341271,94.7163462 C650.52147,94.752404 650.719686,94.8118986 650.935925,94.8948317 C651.152164,94.9777648 651.325152,95.0787254 651.454896,95.1977163 C651.584639,95.3167073 651.694559,95.4681481 651.784658,95.6520433 C651.874758,95.8359384 651.919807,96.0468738 651.919807,96.2848558 Z" id="sc_bt"></path>
        </g>
    </g>
</svg>