<?xml version="1.0" encoding="UTF-8"?>
<svg width="22px" height="22px" viewBox="0 0 22 22" version="1.1" xmlns="http://www.w3.org/2000/svg" xmlns:xlink="http://www.w3.org/1999/xlink">
    <!-- Generator: Sketch 48.2 (47327) - http://www.bohemiancoding.com/sketch -->
    <title>sc_fb</title>
    <desc>Created with Sketch.</desc>
    <defs></defs>
    <g id="mobzoid-web" stroke="none" stroke-width="1" fill="none" fill-rule="evenodd" transform="translate(-667.000000, -8020.000000)">
        <g id="Group-15" transform="translate(201.000000, 7932.000000)" fill="#7F7F7F">
            <path d="M486,88 L468,88 C466.897,88 466,88.897 466,90 L466,108 C466,109.103 466.897,110 468,110 L475.5,110 C475.776,110 476,109.776 476,109.5 L476,102.5 C476,102.224 475.776,102 475.5,102 L474.521,102 C474.245,102 474.021,101.776 474.021,101.5 L474.021,98.5 C474.021,98.224 474.245,98 474.521,98 L475.5,98 C475.776,98 476,97.776 476,97.5 L476,96.5 C476,94.019 478.019,92 480.5,92 L483.5,92 C483.776,92 484,92.224 484,92.5 L484,95.5 C484,95.776 483.776,96 483.5,96 L480.5,96 C480.224,96 480,96.224 480,96.5 L480,97.5 C480,97.776 480.224,98 480.5,98 L483.5,98 C483.647,98 483.787,98.064 483.881,98.176 C483.977,98.289 484.018,98.437 483.993,98.583 L483.493,101.583 C483.453,101.824 483.246,102 483,102 L480.5,102 C480.224,102 480,102.224 480,102.5 L480,109.5 C480,109.776 480.224,110 480.5,110 L486,110 C487.103,110 488,109.103 488,108 L488,90 C488,88.897 487.103,88 486,88" id="sc_fb"></path>
        </g>
    </g>
</svg>