<?xml version="1.0" encoding="UTF-8"?>
<svg width="24px" height="24px" viewBox="0 0 24 24" version="1.1" xmlns="http://www.w3.org/2000/svg" xmlns:xlink="http://www.w3.org/1999/xlink">
    <!-- Generator: Sketch 48.2 (47327) - http://www.bohemiancoding.com/sketch -->
    <title>sc_gh</title>
    <desc>Created with Sketch.</desc>
    <defs></defs>
    <g id="mobzoid-web" stroke="none" stroke-width="1" fill="none" fill-rule="evenodd" transform="translate(-753.000000, -8019.000000)">
        <g id="Group-15" transform="translate(201.000000, 7932.000000)" fill="#7F7F7F">
            <path d="M564,87 C557.383,87 552,92.383 552,99 C552,104.738 555.95,109.78 561.392,110.988 C561.539,111.021 561.694,110.985 561.813,110.89 C561.931,110.795 562,110.652 562,110.5 L562,107.5 C562,107.224 561.776,107 561.5,107 L560.5,107 C559.252,107 558.403,105.817 557.653,104.774 C557.576,104.667 557.5,104.56 557.423,104.456 C557.778,104.644 558.083,104.87 558.385,105.093 C558.986,105.539 559.615,105.977 560.438,105.996 C560.458,105.999 560.566,106.004 560.587,106.004 C561.239,106.004 562,105.61 562,104.5 L562,104.151 C562,103.928 561.852,103.731 561.636,103.67 C558.863,102.885 557,100.807 557,98.5 C557,97.3 557.493,96.155 558.425,95.188 C558.569,95.039 558.606,94.818 558.519,94.63 C558.147,93.828 558.226,92.737 558.667,92.082 C559.251,92.309 560.008,92.786 560.5,93.37 C560.635,93.53 560.857,93.59 561.054,93.518 C562.929,92.83 565.071,92.83 566.946,93.518 C567.145,93.591 567.366,93.531 567.5,93.37 C567.992,92.786 568.749,92.309 569.333,92.082 C569.774,92.737 569.853,93.828 569.481,94.63 C569.394,94.818 569.431,95.039 569.575,95.188 C570.507,96.155 571,97.3 571,98.5 C571,100.922 568.93,103.091 565.967,103.774 C565.815,103.809 565.689,103.912 565.625,104.053 C565.56,104.194 565.564,104.357 565.637,104.495 C565.885,104.963 566,105.601 566,106.5 L566,110.5 C566,110.652 566.069,110.795 566.187,110.89 C566.277,110.962 566.387,111 566.5,111 C566.536,111 566.572,110.996 566.608,110.988 C572.05,109.78 576,104.738 576,99 C576,92.383 570.617,87 564,87" id="sc_gh"></path>
        </g>
    </g>
</svg>