<?xml version="1.0" encoding="UTF-8"?>
<svg width="22px" height="22px" viewBox="0 0 22 22" version="1.1" xmlns="http://www.w3.org/2000/svg" xmlns:xlink="http://www.w3.org/1999/xlink">
    <!-- Generator: Sketch 48.2 (47327) - http://www.bohemiancoding.com/sketch -->
    <title>sc_med</title>
    <desc>Created with Sketch.</desc>
    <defs></defs>
    <g id="mobzoid-web" stroke="none" stroke-width="1" fill="none" fill-rule="evenodd" transform="translate(-796.000000, -8020.000000)">
        <g id="Group-15" transform="translate(201.000000, 7932.000000)" fill="#7F7F7F" fill-rule="nonzero">
            <path d="M595,88 L617,88 L617,110 L595,110 L595,88 Z M600.249999,95.357675 L600.249999,101.889989 C600.290197,102.125634 600.215914,102.366347 600.049903,102.538392 L598.497436,104.42152 L598.497436,104.669844 L602.899543,104.669844 L602.899543,104.42152 L601.347076,102.538392 C601.179847,102.366632 601.100964,102.127505 601.13318,101.889989 L601.13318,96.2406066 L604.997098,104.669844 L605.445589,104.669844 L608.764419,96.2406066 L608.764419,102.959164 C608.764419,103.13851 608.764419,103.172999 608.647121,103.290264 L607.453446,104.449111 L607.453446,104.697436 L613.249324,104.697436 L613.249324,104.449111 L612.097048,103.317855 C611.99533,103.24032 611.944872,103.112885 611.965951,102.986756 L611.965951,94.6747826 C611.944872,94.5486538 611.99533,94.4212187 612.097048,94.3436832 L613.276923,93.2124271 L613.276923,92.9641026 L609.19221,92.9641026 L606.280471,100.227595 L602.968541,92.9641026 L598.683732,92.9641026 L598.683732,93.2124271 L600.063703,94.8748217 C600.199175,94.9969286 600.268361,95.1762485 600.249999,95.357675 Z" id="sc_med"></path>
        </g>
    </g>
</svg>