<?xml version="1.0" encoding="UTF-8"?>
<svg width="24px" height="18px" viewBox="0 0 24 18" version="1.1" xmlns="http://www.w3.org/2000/svg" xmlns:xlink="http://www.w3.org/1999/xlink">
    <!-- Generator: Sketch 48.2 (47327) - http://www.bohemiancoding.com/sketch -->
    <title>sc_rd</title>
    <desc>Created with Sketch.</desc>
    <defs></defs>
    <g id="mobzoid-web" stroke="none" stroke-width="1" fill="none" fill-rule="evenodd" transform="translate(-709.000000, -8022.000000)">
        <g id="Group-15" transform="translate(201.000000, 7932.000000)" fill="#7F7F7F">
            <path d="M524.694,104.961 C523.033,105.66 521.498,106 520,106 C518.502,106 516.966,105.66 515.305,104.961 C515.051,104.854 514.931,104.561 515.039,104.306 C515.147,104.052 515.437,103.932 515.694,104.039 C518.764,105.332 521.235,105.332 524.305,104.039 C524.561,103.933 524.853,104.052 524.961,104.306 C525.068,104.561 524.948,104.854 524.694,104.961 M516.5,99 C517.327,99 518,99.673 518,100.5 C518,101.327 517.327,102 516.5,102 C515.673,102 515,101.327 515,100.5 C515,99.673 515.673,99 516.5,99 M523.5,99 C524.327,99 525,99.673 525,100.5 C525,101.327 524.327,102 523.5,102 C522.673,102 522,101.327 522,100.5 C522,99.673 522.673,99 523.5,99 M532,98 C532,96.346 530.654,95 529,95 C527.914,95 526.936,95.594 526.41,96.518 C524.793,95.637 522.742,95.089 520.5,95.017 L520.5,91.103 L526.013,92.136 C526.085,93.175 526.944,94 528,94 C529.102,94 530,93.103 530,92 C530,90.897 529.102,90 528,90 C527.201,90 526.515,90.474 526.195,91.153 L520.091,90.009 C519.948,89.982 519.796,90.021 519.68,90.115 C519.566,90.211 519.5,90.351 519.5,90.5 L519.5,95.017 C517.257,95.089 515.207,95.637 513.59,96.518 C513.063,95.594 512.086,95 511,95 C509.345,95 508,96.346 508,98 C508,99.297 508.851,100.434 510.051,100.835 C510.017,101.054 510,101.275 510,101.5 C510,105.084 514.486,108 520,108 C525.513,108 530,105.084 530,101.5 C530,101.275 529.982,101.054 529.948,100.835 C531.148,100.434 532,99.297 532,98" id="sc_rd"></path>
        </g>
    </g>
</svg>