<?xml version="1.0" encoding="UTF-8"?>
<svg width="24px" height="20px" viewBox="0 0 24 20" version="1.1" xmlns="http://www.w3.org/2000/svg" xmlns:xlink="http://www.w3.org/1999/xlink">
    <!-- Generator: Sketch 48.2 (47327) - http://www.bohemiancoding.com/sketch -->
    <title>sc_tw</title>
    <desc>Created with Sketch.</desc>
    <defs></defs>
    <g id="mobzoid-web" stroke="none" stroke-width="1" fill="none" fill-rule="evenodd" transform="translate(-623.000000, -8021.000000)">
        <g id="Group-15" transform="translate(201.000000, 7932.000000)" fill="#7F7F7F">
            <path d="M445.865955,91.43 C445.712955,91.265 445.467955,91.223 445.267955,91.328 C445.124955,91.403 444.846955,91.501 444.520955,91.597 C444.911955,91.084 445.228955,90.501 445.364955,89.979 C445.418955,89.776 445.337955,89.561 445.165955,89.441 C444.990955,89.322 444.761955,89.324 444.591955,89.445 C444.297955,89.654 442.938954,90.256 442.061954,90.451 C440.948954,89.45 439.840953,89 438.500953,89 C437.495952,89 436.564952,89.287 435.482952,89.929 C433.595951,91.049 433.268951,93.47 433.408951,94.955 C428.28695,94.467 425.413949,91.487 424.392948,90.19 C424.290948,90.061 424.128948,89.999 423.964948,90.001 C423.799948,90.013 423.650948,90.105 423.567948,90.248 C422.346948,92.341 422.846948,94.495 423.784948,95.944 C423.630948,95.839 423.474948,95.722 423.318948,95.593 C423.168948,95.47 422.961948,95.442 422.786948,95.526 C422.611948,95.608 422.499948,95.784 422.499948,95.978 C422.499948,98.175 423.786948,99.745 425.042949,100.637 C424.919948,100.604 424.787948,100.566 424.648948,100.522 C424.460948,100.465 424.256948,100.52 424.126948,100.667 C423.995948,100.814 423.962948,101.024 424.042948,101.203 C424.845948,103.008 426.442949,104.354 428.23295,104.822 C426.693949,105.759 424.565948,106.24 422.557948,106.003 C422.323948,105.972 422.098948,106.118 422.024948,106.344 C421.950948,106.569 422.045948,106.816 422.251948,106.934 C424.685948,108.324 427.214949,109 429.98295,109 L430.00095,109 C433.781951,108.997 437.332952,107.352 439.998953,104.368 C442.571954,101.489 443.920955,97.802 443.644954,94.445 C444.305955,93.951 445.306955,93.027 445.923955,92.035 C446.043955,91.843 446.019955,91.595 445.865955,91.43 Z" id="sc_tw"></path>
        </g>
    </g>
</svg>