<?xml version="1.0" encoding="UTF-8"?>
<svg width="24px" height="24px" viewBox="0 0 24 24" version="1.1" xmlns="http://www.w3.org/2000/svg" xmlns:xlink="http://www.w3.org/1999/xlink">
    <!-- Generator: Sketch 48.2 (47327) - http://www.bohemiancoding.com/sketch -->
    <title>sc_tel</title>
    <desc>Created with Sketch.</desc>
    <defs></defs>
    <g id="mobzoid-web" stroke="none" stroke-width="1" fill="none" fill-rule="evenodd" transform="translate(-579.000000, -8019.000000)">
        <g id="Group-15" transform="translate(201.000000, 7932.000000)" fill="#7F7F7F">
            <path d="M388.166207,101.313996 L388,104 C388.272727,104 388.393227,103.865459 388.545455,103.705815 L389.720977,102.472833 L392.91056,104.850166 C393.460326,105.156187 393.857112,104.997744 393.994053,104.335239 L395.95512,95.0122899 C396.155899,94.2002064 395.648273,93.8318835 395.122336,94.0727688 L383.606983,98.5522829 C382.820952,98.8703444 382.825535,99.3127481 383.463706,99.5098744 L386.418805,100.44036 L393.260175,96.0860728 C393.58314,95.8884941 393.879557,95.9947166 393.636269,96.2125456 L388.297625,101.072844 L388.185636,101 L388.174174,101.185233 L388.09282,101.259298 L388.166207,101.313996 Z M390,111 C383.372583,111 378,105.627417 378,99 C378,92.372583 383.372583,87 390,87 C396.627417,87 402,92.372583 402,99 C402,105.627417 396.627417,111 390,111 Z" id="sc_tel"></path>
        </g>
    </g>
</svg>